# xmcd
#
# Track frame offsets:
#	150
#	31538
#	68946
#	116234
#	141782
#	208960
#
# Disc length: 3104 seconds
#
# Revision: 2
# Processed by: cddbd v1.5.1PL2 Copyright (c) Steve Scherf et al.
# Submitted via: EasyCDDAExtractor 8.0.2.1
#
DISCID=570c1e06
DTITLE=Deep Purple  - Stadthalle Vienna 14-03-73 Disc 1
DYEAR=1973
DGENRE=Hard Rock
TTITLE0=Highway Star
TTITLE1=Smoke On The Water
TTITLE2=Strange Kind Of Woman
TTITLE3=Mary Long
TTITLE4=Lazy
TTITLE5=Drum Solo Incl The Mule
EXTD=
EXTT0=
EXTT1=
EXTT2=
EXTT3=
EXTT4=
EXTT5=
PLAYORDER=
